<svg width="1090" height="1205" xmlns="http://www.w3.org/2000/svg" preserveAspectRatio="xMidYMid meet" version="1.0">
 <metadata>Created by potrace 1.15, written by Peter Selinger 2001-2017</metadata>

 <g>
  <title>Layer 1</title>
  <path stroke="#000000" fill="none" stroke-width="8" id="svg_2" d="m357.69344,4.3967c-16.70001,3.9 -29.30001,11.2 -43.60001,25.5c-11.6,11.5 -19.9,23.2 -27.9,39.1c-47.7,95.4 -31.6,252.8 35.3,343.00001c9.1,12.3 24.9,28.5 35.7,36.6c35.40001,26.7 75.20001,28.1 107.10001,3.8c32.7,-25 55.1,-73.2 63.6,-136.90001c2.1,-16.4 2.5,-67.2 0.5,-84c-8.2,-70.2 -29.1,-128.3 -61.8,-172.2c-8.2,-10.9 -24.3,-27.3 -34.4,-35c-9.4,-7.1 -27.2,-16.3 -36.5,-18.8c-8.3,-2.3 -30.2,-2.9 -38,-1.1z"/>
  <path stroke-width="8" stroke="#000000" fill="none" id="svg_3" d="m748.52072,26.44855c-31.1,6.1 -63.6,29.9 -90.5,66.1c-34.6,46.5 -58,108 -66.8,175.8c-2.8,21.6 -2.5,69.8 0.5,89.4c7,44.7 21.9,78.9 44.2,101.1c19.1,19.2 43.1,28.1 67.5,25.2c58.1,-7.2 115.4,-70.6 146,-161.6c25.4,-75.5 28.1,-155 7.3,-215.6c-20.3,-59.1 -61.5,-89.7 -108.2,-80.4z"/>
  <path stroke-width="8" fill="none" stroke="#000000" id="svg_4" d="m105.69343,352.84856c-40.9,6.5 -71.7,39.5 -85.6,91.9c-7.9,30.1 -9,71.6 -2.8,108.1c14.3,85 63.5,163.1 121.7,193.3c29.8,15.4 59.5,18.1 85,7.5c37.6,-15.6 62.3,-56 70.4,-115.3c1.6,-11.9 1.6,-47.2 -0.1,-61c-13,-110.2 -80.9,-206.9 -156.4,-223c-8.9,-1.9 -24.7,-2.6 -32.2,-1.5z"/>
  <path stroke-width="8" fill="none" stroke="#000000" id="svg_5" d="m950.92072,433.84856c-36,7.7 -71.3,33 -100.6,72.2c-31.8,42.6 -53.2,98.2 -59.4,154.2c-1.6,14.6 -1.3,46 0.5,60.1c12.2,94.8 76.6,140.3 149.5,105.9c39.1,-18.5 74.5,-56.6 99.8,-107.3c48,-96 44.9,-208.5 -7.3,-260.6c-22,-22 -52.3,-31 -82.5,-24.5z"/>
  <path stroke-width="8" stroke="#000000" id="svg_6" d="m516.97627,628.7856c-66.2,11.8 -149.7,81.3 -223.7,186.1c-57.9,82.1 -98.7,170.5 -110.9,240.5c-2.9,16.8 -3.2,46.8 -0.6,58.3c4.1,17.9 11,29.7 24.4,42.2c22.4,20.7 49.3,32.9 83,37.6c17.5,2.4 52.9,1.5 75.4,-1.9c30.1,-4.7 55.5,-10.8 112.4,-27.2c55,-15.8 70.4,-19.1 85.6,-18.1c19.3,1.3 33.8,6 75.4,24.3c29.8,13.1 46.4,19.3 60.6,22.8c53,12.8 97.6,-3.9 143.5,-53.7c13.7,-14.8 17.9,-22 22.2,-37.7c2.4,-9 2.6,-11 2.6,-32.1c0,-19.1 -0.3,-24.5 -2.3,-35.5c-11.8,-66.7 -46.9,-147.3 -97.6,-224c-60.3,-91.2 -131.1,-156.9 -190.2,-176.4c-10.75,-3.55 -20.7,-5.725 -30.4625,-6.575c-4.88125,-0.425 -9.71563,-0.51875 -14.57969,-0.2875c-2.43203,0.11563 -4.87148,0.3125 -7.32793,0.58984c-1.22822,0.13867 -2.46069,0.29746 -3.69861,0.47627c-1.23792,0.17881 -2.48127,0.37764 -3.73127,0.59639z" opacity="undefined" fill="none"/>
  <polyline stroke-linecap="round" fill="none" id="svg_7" points="60.85185637551331,1193.9999987185001 60.85185637551331,1193.6296312813406 61.03704314585093,1193.444444511003 61.03704314585093,1193.2592577406654 61.22222381267284,1192.7037035331682 61.22222381267284,1192.148149325671 61.40741058301046,1191.7777818885115 61.59259735334808,1191.0370409106768 61.59259735334808,1190.4814805996639 61.59259735334808,1190.1111131625044 61.59259735334808,1189.3703721846696 61.59259735334808,1188.8148179771724 61.59259735334808,1188.2592576661596 61.59259735334808,1187.7037034586624 61.40741058301046,1187.1481492511653 61.22222381267284,1186.4074082733305 60.85185637551331,1185.6666672954957 60.48148283483806,1184.7407395473233 59.92592862734091,1183.9999985694885 59.55556119018138,1183.0740769248318 59.18518764950613,1182.1481491766594 58.62963344200898,1181.0370407616651 58.44444667167136,1180.2962997838304 58.07407923451183,1179.370372035658 57.70370569383658,1178.4444442874856 57.70370569383658,1177.7037033096508 57.51851892349896,1177.1481552056694 57.33333825667705,1176.5925887911408 57.33333825667705,1176.0370345836436 57.14815148633943,1175.4814803761465 57.14815148633943,1175.1111068354712 57.14815148633943,1174.555552627974 56.96296471600181,1174.1851912943303 56.96296471600181,1173.629637086833 56.96296471600181,1173.4444442129798 56.96296471600181,1173.0740706723045 56.7777840491799,1173.0740706723045 56.7777840491799,1172.8888900054826 56.59259727884228,1172.8888900054826 56.407410508504654,1172.8888900054826 56.22222373816703,1172.8888900054826 55.8518563010075,1172.8888900054826 54.9259285528351,1172.7037093386607 53.44444659716555,1172.5185164648074 51.962964641496,1172.3333357979855 49.92592542657144,1172.3333357979855 47.51851877448735,1172.5185164648074 45.111112122403256,1172.7037093386607 42.148148211064154,1173.2592635461579 39.370371070062674,1173.814817753655 36.40740715872357,1174.3703719611522 34.00000050663948,1174.9259261686493 30.851852876720613,1175.6666732499998 28.2592594542989,1176.222227457497 26.222223291132195,1176.5925887911408 24.740741335462644,1177.1481552056694 23.814816639048104,1177.3333358724913 23.0740741353344,1177.7037033096508 22.333333157499624,1178.074076850326 22.333333157499624,1178.2592636206637 22.14814791304093,1178.4444442874856 22.14814791304093,1178.6296310578232 " opacity="NaN"/>
 </g>
</svg>